<?xml version="1.0" encoding="utf-8"?>
<!-- Generator: Adobe Illustrator 16.0.0, SVG Export Plug-In . SVG Version: 6.00 Build 0)  -->
<!DOCTYPE svg PUBLIC "-//W3C//DTD SVG 1.1//EN" "http://www.w3.org/Graphics/SVG/1.1/DTD/svg11.dtd">
<svg version="1.1" id="Layer_1" xmlns="http://www.w3.org/2000/svg" xmlns:xlink="http://www.w3.org/1999/xlink" x="0px" y="0px"
	 width="250px" height="250px" viewBox="116.396 131 250 250" enable-background="new 116.396 131 250 250" xml:space="preserve">
<g>
	<title>background</title>
	<rect id="canvas_background" x="131" y="131" fill="none" width="250" height="199.008"/>
</g>
<g>
	<title>Layer 1</title>
	<path id="svg_1" fill="#FCFCFC" stroke="#FFFFFF" d="M210.145,313.674c0-4.379,3.494-7.922,7.813-7.922
		c4.317,0,7.812,3.543,7.812,7.922c0,4.377-3.495,7.92-7.812,7.92C213.639,321.594,210.145,318.051,210.145,313.674L210.145,313.674
		z M286.965,376.127c-2.082,0.604-4.233,1.035-6.507,1.035c-12.948,0-23.438-10.635-23.438-23.762v-28.805
		c0-9.947,6.299-18.395,15.038-21.504c16.781-5.717,31.837-20.072,31.837-36.943v-15.842c0-7.508-3.021-14.499-7.813-20.48v-17.887
		c0-8.747-6.995-11.742-15.624-6.681l-11.971,7.018c-3.834-1.008-7.705-1.575-11.468-1.575h-31.25c-3.76,0-7.633,0.567-11.466,1.575
		l-11.971-7.018c-8.627-5.061-15.625-2.065-15.625,6.681v17.887c-4.791,5.981-7.812,12.972-7.812,20.48v15.842
		c0,11.525,7.074,21.875,16.884,29.115l-0.01,0.016c2.037,1.414,3.392,3.807,3.392,6.512c0,4.371-3.504,7.922-7.813,7.922
		c-2.207,0-4.186-0.938-5.605-2.43C172.55,297.15,163.27,282.5,163.27,266.148v-15.842c0-9.171,2.936-17.812,7.813-25.434v-23.581
		c0-17.493,13.987-23.484,31.25-13.364l13.409,7.865c3.344-0.576,6.695-0.932,10.029-0.932h31.25c3.335,0,6.684,0.356,10.03,0.932
		l13.408-7.865c17.265-10.119,31.25-4.128,31.25,13.364v23.581c4.875,7.623,7.813,16.263,7.813,25.434v15.842
		c0,23.568-19.166,43.635-41.764,51.664c-0.026,0.021-0.053,0.084-0.092,0.092c-2.938,1.145-5.02,4.021-5.02,7.402V353.4
		c0,4.379,3.494,7.922,7.813,7.922c0.651,0,1.251-0.186,1.854-0.342c40.123-16.414,68.459-56.188,68.459-102.754
		c0-61.245-48.966-110.891-109.375-110.891c-60.408,0-109.375,49.646-109.375,110.891c0,48.223,30.397,89.141,72.813,104.402
		c0.218,0.023,0.416,0.115,0.643,0.115c2.577,0,4.669-2.127,4.669-4.732c0-2.615-2.092-4.734-4.669-4.734
		c-0.055,0-0.055-0.047-0.093-0.07c-25.957-0.703-25.986-31.613-34.299-31.613c-4.319,0-7.813-3.541-7.813-7.92
		s3.494-7.922,7.813-7.922c0.824,0,2.054,0,3.9,0c15.635,0,13.401,31.684,35.162,31.684c8.627,0,15.625,7.094,15.625,15.842v13.861
		c0,7.65-6.116,13.861-13.674,13.861c-0.824,0-1.6-0.17-2.386-0.326c-53.665-14.225-93.314-63.574-93.314-122.447
		c0-69.991,55.965-126.732,125-126.732c69.034,0,125,56.741,125,126.732C366.396,311.895,333.439,357.654,286.965,376.127
		L286.965,376.127L286.965,376.127z"/>
</g>
</svg>
