<?xml version="1.0" encoding="utf-8"?>
<!-- Generator: Adobe Illustrator 16.0.0, SVG Export Plug-In . SVG Version: 6.00 Build 0)  -->
<!DOCTYPE svg PUBLIC "-//W3C//DTD SVG 1.1//EN" "http://www.w3.org/Graphics/SVG/1.1/DTD/svg11.dtd">
<svg version="1.1" id="Layer_1" xmlns="http://www.w3.org/2000/svg" xmlns:xlink="http://www.w3.org/1999/xlink" x="0px" y="0px"
	 width="250px" height="250px" viewBox="4.672 3.463 250 250" enable-background="new 4.672 3.463 250 250" xml:space="preserve">
<path fill="none" stroke="#FFFFFF" stroke-width="4" stroke-linecap="round" stroke-linejoin="round" stroke-miterlimit="10" d="
	M8.88,96.423c-18.509,69.605,26.085,140.07,93.8,154.407c66.115,13.999,131.938-29.416,148.187-92.279
	C267.337,94.824,228.9,25.914,163.44,8.414C60.958-18.349,15.114,71.903,15.109,76.438"/>
<path id="linkedin" fill="none" stroke="#FFFFFF" stroke-width="4" stroke-linecap="round" stroke-linejoin="round" stroke-miterlimit="10" d="
	M96.597,171.541c-0.438-24.84,1.187-72.484-1.147-74.833c-2.333-2.348-20.682-9.348-24.124-14.714
	c-3.444-5.365-2.44-16.12,9.859-16.133c12.299-0.015,13.855,10.224,10.653,16.884c-3.203,6.66-21.336,11.576-23.402,14.283
	c-2.068,2.708-2.947,80.564,0,82.474c2.947,1.91,39.949,1.75,43.223-0.637c3.274-2.388-4.094-79.609,0-81.52
	s21.119-2.229,23.25-1.273c2.128,0.956,0.818,9.076,2.291,9.871c1.474,0.797,12.341-13.187,29.471-11.145
	c12.692,1.512,24.068,11.941,25.868,22.29c1.801,10.349,1.091,40.76,0.656,61.138c-8.732,0.319-17.466,0.797-26.195,1.115
	c-0.329-17.196,1.311-39.646-0.984-51.428c-2.293-11.783-27.091-11.621-26.851,0c0.239,11.622,1.964,51.428-3.275,51.269"/>
</svg>
