<?xml version="1.0" encoding="utf-8"?>
<!-- Generator: Adobe Illustrator 16.0.0, SVG Export Plug-In . SVG Version: 6.00 Build 0)  -->
<!DOCTYPE svg PUBLIC "-//W3C//DTD SVG 1.1//EN" "http://www.w3.org/Graphics/SVG/1.1/DTD/svg11.dtd">
<svg version="1.1" id="Layer_1" xmlns="http://www.w3.org/2000/svg" xmlns:xlink="http://www.w3.org/1999/xlink" x="0px" y="0px"
	 width="17.393px" height="20.615px" viewBox="3.295 1.708 17.393 20.615" enable-background="new 3.295 1.708 17.393 20.615"
	 xml:space="preserve">
<title></title>
<g>
	<title>background</title>
	<rect id="canvas_background" x="-1" y="-1" fill="none" width="582" height="402"/>
</g>
<g>
	<title>Layer 1</title>
	<path id="svg_1" fill="#FFEDCE" d="M19.684,10.325c-1.459-2.531-4.186-4.063-7.105-3.995c-0.593,0.012-1.146-0.3-1.443-0.815
		l-1.78-3.083l-5.196,3l1.78,3.083c0.298,0.514,0.292,1.149-0.016,1.657c-1.52,2.496-1.556,5.623-0.094,8.152
		c0.066,0.115,0.136,0.229,0.207,0.34c2.167,3.361,5.485,2.855,9.082,1.184c0.438-0.197,0.853-0.438,1.239-0.717
		c3.276-2.301,5.365-4.979,3.469-8.552C19.779,10.494,19.732,10.409,19.684,10.325z"/>
	<path id="svg_2" fill="#FCE4BA" d="M9.991,3.574l-5.196,3C4.316,6.85,3.705,6.686,3.429,6.208l0,0
		c-0.276-0.479-0.112-1.09,0.366-1.366l5.196-3c0.479-0.276,1.09-0.112,1.366,0.366l0,0C10.633,2.686,10.469,3.298,9.991,3.574z"/>
	<path id="svg_3" fill="#1E1E1E" d="M17.661,11.735l-0.3,0.636c-0.489,0.921-1.448,1.484-2.479,1.456l-0.692-0.058
		c-1.028-0.028-1.987,0.532-2.478,1.455l-0.299,0.637c-0.489,0.922-1.448,1.486-2.479,1.455l-0.691-0.055
		c-0.94-0.02-1.823,0.452-2.337,1.254c2.144,3.465,6.487,4.774,10.141,3.053c0.438-0.199,0.854-0.442,1.243-0.728
		c3.315-2.374,4.362-6.894,2.437-10.521C18.854,10.426,18.084,10.953,17.661,11.735z"/>
	<circle id="svg_7" fill="#FFE6BA" cx="17.967" cy="15.613" r="1"/>
</g>
<g>
	<title>Layer 1</title>
	<path id="Rectangle_233" fill="#1E1E1E" d="M9.656,14.158v2.059l0,0c0.003,0.189-0.149,0.4-0.464,0.535
		c-0.438,0.186-0.897,0.094-1.065-0.121c-0.168-0.213-0.045-0.551,0.392-0.736c0.294-0.125,0.598-0.125,0.817-0.047v-1.637v-1.057
		l3.204-0.527v0.264v0.793v2.271l0,0c0.002,0.188-0.15,0.399-0.464,0.535c-0.438,0.184-0.897,0.094-1.065-0.121
		c-0.168-0.213-0.045-0.552,0.392-0.736c0.294-0.125,0.599-0.125,0.816-0.047v-1.849L9.656,14.158z"/>
</g>
<g>
	<title>Layer 1</title>
	<path id="svg_2_1_" fill="#1E1E1E" d="M14.436,8.934l0.157-0.274l-1.647-0.573v2.855c-0.155-0.051-0.344-0.081-0.548-0.081
		c-0.526,0-0.953,0.199-0.953,0.445c0,0.246,0.427,0.446,0.953,0.446s0.955-0.2,0.955-0.446c0-0.03-0.009-0.061-0.021-0.089V8.549
		L14.436,8.934z"/>
</g>
<g>
	<title>Layer 1</title>
	<path id="svg_2_2_" fill="#1E1E1E" d="M9.138,8.085L9.064,7.907l0.77-0.373v1.857c0.073-0.033,0.161-0.053,0.256-0.053
		c0.246,0,0.445,0.13,0.445,0.29s-0.199,0.291-0.445,0.291c-0.246,0-0.446-0.13-0.446-0.291c0-0.02,0.004-0.039,0.009-0.058V7.835
		L9.138,8.085z"/>
</g>
</svg>
