<?xml version="1.0" encoding="utf-8"?>
<!-- Generator: Adobe Illustrator 16.0.0, SVG Export Plug-In . SVG Version: 6.00 Build 0)  -->
<!DOCTYPE svg PUBLIC "-//W3C//DTD SVG 1.1//EN" "http://www.w3.org/Graphics/SVG/1.1/DTD/svg11.dtd">
<svg version="1.1" id="Layer_1" xmlns="http://www.w3.org/2000/svg" xmlns:xlink="http://www.w3.org/1999/xlink" x="0px" y="0px"
	 width="250px" height="250px" viewBox="181.414 271 250 250" enable-background="new 181.414 271 250 250" xml:space="preserve">
<g>
	<path fill="#FDFEFF" d="M223.369,303.292h-2.081c-3.814,0-6.935,3.125-6.935,6.944c0,3.82,3.121,6.945,6.935,6.945h2.081
		c3.814,0,6.935-3.125,6.935-6.945C230.304,306.417,227.183,303.292,223.369,303.292z"/>
	<path fill="#FDFEFF" d="M254.229,303.292h-2.081c-3.814,0-6.935,3.125-6.935,6.944c0,3.82,3.121,6.945,6.935,6.945h2.081
		c3.814,0,6.935-3.125,6.935-6.945C261.164,306.417,258.043,303.292,254.229,303.292z"/>
	<path fill="#FDFEFF" d="M285.089,303.292h-2.08c-3.814,0-6.935,3.125-6.935,6.944c0,3.82,3.121,6.945,6.935,6.945h2.08
		c3.814,0,6.935-3.125,6.935-6.945C292.024,306.417,288.903,303.292,285.089,303.292z"/>
	<path fill="#FDFEFF" d="M402.635,271H209.846c-15.604,0-28.433,12.847-28.433,28.472v193.403c0,15.278,12.829,28.125,28.433,28.125
		H402.98c15.604,0,28.434-12.847,28.434-28.472V299.472C431.066,283.847,418.237,271,402.635,271z M417.197,492.528
		c0,7.985-6.588,14.583-14.563,14.583H209.846c-7.975,0-14.563-6.598-14.563-14.583V349.125h191.054
		c3.814,0,6.936-3.125,6.936-6.944c0-3.82-3.121-6.944-6.936-6.944H195.283v-35.764c0-7.986,6.588-14.583,14.563-14.583H402.98
		c7.629,0,14.217,6.597,14.217,14.583V492.528z"/>
	<path fill="#FDFEFF" d="M330.512,401.556h-3.813c-1.388,0-2.428,0.694-2.774,2.083l-6.588,22.569l-5.548-22.569
		c-0.347-1.389-1.387-2.083-2.774-2.083h-5.201c-1.387,0-2.427,1.042-2.774,2.083l-5.895,22.569l-6.588-22.569
		c-0.347-1.389-1.387-2.083-2.774-2.083h-3.468c-2.08,0-3.467,2.083-2.774,3.819l10.056,31.944c0.347,1.39,1.387,2.083,2.774,2.083
		h5.201c1.387,0,2.427-1.041,2.774-2.083l5.895-22.222l5.895,22.222c0.347,1.39,1.387,2.083,2.774,2.083h5.2
		c1.388,0,2.428-0.693,2.774-2.083l10.056-31.944C333.633,403.291,332.246,401.556,330.512,401.556z"/>
	<path fill="#FDFEFF" d="M387.031,401.556h-3.814c-1.387,0-2.428,0.694-2.774,2.083l-6.588,22.569l-5.895-22.569
		c-0.347-1.389-1.387-2.083-2.773-2.083h-5.201c-1.388,0-2.428,1.042-2.774,2.083l-5.895,22.569l-6.588-22.569
		c-0.347-1.389-1.387-2.083-2.774-2.083h-3.467c-2.081,0-3.468,2.083-2.774,3.819l10.056,31.944c0.347,1.39,1.387,2.083,2.774,2.083
		h5.201c1.387,0,2.427-1.041,2.773-2.083l5.895-22.222l5.895,22.222c0.347,1.39,1.387,2.083,2.774,2.083h5.201
		c1.387,0,2.427-0.693,2.773-2.083l10.402-31.944C390.151,403.291,388.765,401.556,387.031,401.556z"/>
	<path fill="#FDFEFF" d="M273.646,401.556h-3.814c-1.387,0-2.427,0.694-2.774,2.083l-6.588,22.569l-5.895-22.569
		c-0.347-1.389-1.387-2.083-2.774-2.083h-5.201c-1.387,0-2.427,1.042-2.774,2.083l-5.895,22.569l-6.588-22.569
		c-0.347-1.389-1.387-2.083-2.774-2.083h-3.468c-2.08,0-3.467,2.083-2.773,3.819l10.055,31.944c0.347,1.39,1.387,2.083,2.774,2.083
		h5.201c1.387,0,2.427-1.041,2.774-2.083l5.895-22.222l5.895,22.222c0.347,1.39,1.387,2.083,2.774,2.083h5.201
		c1.387,0,2.427-0.693,2.774-2.083l10.402-31.944C277.114,403.291,275.727,401.556,273.646,401.556z"/>
</g>
</svg>
